<svg xmlns="http://www.w3.org/2000/svg" viewBox="0 0 64 64" fill="currentColor" width="64px" height="64px">
<circle cx="32" cy="32" r="32" fill="#B0E0E6"/>
  <path d="M32 4C17.663 4 6 14.745 6 28c0 4.755 1.534 9.215 4.237 12.912L6 56l14.664-4.149C24.242 54.148 28.01 56 32 56c14.337 0 26-10.745 26-24S46.337 4 32 4zM32 52c-3.45 0-6.739-1.24-9.314-3.308L10 52l3.687-11.054C11.25 37.655 10 32.905 10 28c0-11.046 9.85-20 22-20s22 8.954 22 20-9.85 20-22 20zm7.516-25.863c.22 0 .396-.176.396-.396v-2.155c0-.22-.176-.396-.396-.396H24.063c-.22 0-.396.176-.396.396v2.155c0 .22.176.396.396.396h15.453z"/>
</svg>
